<?xml version="1.0" encoding="utf-8"?>
<!DOCTYPE svg PUBLIC "-//W3C//DTD SVG 1.0//EN" "http://www.w3.org/TR/2001/REC-SVG-20010904/DTD/svg10.dtd">
<svg version="1.0" xmlns="http://www.w3.org/2000/svg" width="360px" height="336px" viewBox="0 0 360 336" preserveAspectRatio="xMidYMid meet">
 <g fill="#ffffff" stroke="#ffffff" stroke-width="1">
  <path d="M164.6 274.1 l-17.8 -17.8 7.3 -0.2 c4 -0.1 7.4 -0.3 7.6 -0.4 0.3 -0.3 -1.5 -22.2 -2.2 -27.2 l-0.5 -3 -18.7 0.3 c-10.2 0.2 -19 -0.1 -19.5 -0.6 -1 -1 -31.8 -185.3 -31.1 -186.4 0.2 -0.5 41.8 -0.8 92.4 -0.8 79.1 0 91.9 0.2 91.9 1.4 0 0.8 -2.7 18.9 -6 40.2 -7.6 49.2 -18.7 120.6 -20.9 134.9 l-1.7 11 -19.9 0.2 -20 0.2 -0.7 7.3 c-0.3 4 -0.9 10.8 -1.3 15 l-0.6 7.7 7.6 0.3 7.5 0.3 -17.7 17.8 -17.8 17.7 -17.9 -17.9z m30.8 -82.5 c6.6 -2.7 11.3 -7.3 14.7 -14.1 2.9 -6 3.1 -7.1 2.7 -14.3 -0.6 -10.2 -3.2 -15.7 -17.8 -37.7 -6.2 -9.3 -11.6 -17.4 -12 -17.9 -1 -1 -24.1 33.4 -27.7 41 -8.7 18.9 -2 37.2 16 43.6 6.2 2.2 18 1.9 24.1 -0.6z m41.6 -110.5 c12.9 -4.4 16.3 -5.2 20.2 -4.7 4.4 0.5 4.7 0.4 5.2 -2.2 0.6 -3 4.6 -28 4.6 -28.7 0 -0.3 -38.2 -0.5 -85 -0.5 -80.3 0 -85 0.1 -85 1.8 0 2.6 6.5 35.1 7.2 35.7 1.1 1.1 15.6 -1.8 27.6 -5.6 6.8 -2.1 14.1 -3.9 16.4 -3.9 5.3 0 13.6 2.2 22.9 6 15.3 6.4 23.1 8 37.4 7.7 12.7 -0.3 13.3 -0.4 28.5 -5.6z"/>
 </g>
</svg>